<?xml version="1.0" encoding="utf-8"?>
<!-- Generator: Adobe Illustrator 19.0.0, SVG Export Plug-In . SVG Version: 6.00 Build 0)  -->
<svg version="1.1" id="Layer_1" xmlns="http://www.w3.org/2000/svg" xmlns:xlink="http://www.w3.org/1999/xlink" x="0px" y="0px"
	 viewBox="0 0 800 800" style="enable-background:new 0 0 800 800;" xml:space="preserve">
<style type="text/css">
	.st0{fill:none;stroke:#000000;stroke-miterlimit:10;}
	.st1{font-family:'MyriadPro-Regular';}
	.st2{font-size:151.4826px;}
</style>
<line id="XMLID_1_" class="st0" x1="208" y1="111" x2="107" y2="298"/>
<line id="XMLID_2_" class="st0" x1="208" y1="111" x2="315" y2="298"/>
<line id="XMLID_3_" class="st0" x1="107" y1="298" x2="157.5" y2="298"/>
<line id="XMLID_4_" class="st0" x1="315" y1="298" x2="261.5" y2="298"/>
<line id="XMLID_5_" class="st0" x1="157.5" y1="298" x2="107" y2="402"/>
<line id="XMLID_6_" class="st0" x1="261.5" y1="298" x2="315" y2="402"/>
<line id="XMLID_7_" class="st0" x1="107" y1="402" x2="157.5" y2="402"/>
<line id="XMLID_8_" class="st0" x1="315" y1="402" x2="261.5" y2="402"/>
<line id="XMLID_9_" class="st0" x1="157.5" y1="402" x2="82.6" y2="587.4"/>
<line id="XMLID_10_" class="st0" x1="261.5" y1="402" x2="340" y2="587.4"/>
<line id="XMLID_11_" class="st0" x1="82.6" y1="587.4" x2="147" y2="587.4"/>
<line id="XMLID_12_" class="st0" x1="340" y1="587.4" x2="268" y2="587.4"/>
<line id="XMLID_13_" class="st0" x1="147" y1="587.4" x2="261.5" y2="587.4"/>
<line id="XMLID_14_" class="st0" x1="157.5" y1="587.4" x2="157.5" y2="678"/>
<line id="XMLID_15_" class="st0" x1="268" y1="587.4" x2="256" y2="587.4"/>
<line id="XMLID_16_" class="st0" x1="261.5" y1="587.4" x2="261.5" y2="678"/>
<line id="XMLID_17_" class="st0" x1="157.5" y1="678" x2="256" y2="678"/>
<line id="XMLID_18_" class="st0" x1="261.5" y1="678" x2="250" y2="678"/>
<text id="XMLID_19_" transform="matrix(0.5711 0 0 1 366.9999 314.5703)"><tspan x="0" y="0" class="st1 st2">United</tspan><tspan x="0" y="125" class="st1 st2">Park</tspan><tspan x="0" y="250" class="st1 st2">Enthusiasts</tspan></text>
</svg>
